<svg width="112" height="29" viewBox="0 0 112 29" fill="none" xmlns="http://www.w3.org/2000/svg">
<g clip-path="url(#clip0_53_43)">
<g opacity="0.63">
<path d="M24.9654 5.31543C23.9606 5.31543 23.2603 4.83751 22.8645 3.88169C21.403 3.88169 19.7995 4.23758 18.0538 4.94937C16.9678 5.39678 16.2371 5.8086 15.8616 6.18483C15.4861 6.56106 15.2831 6.85594 15.2526 7.06948C15.2323 7.28301 15.3389 7.46604 15.5723 7.61857C15.8058 7.76093 16.1305 7.8982 16.5466 8.03039C16.9729 8.16258 17.4651 8.29477 18.0234 8.42696C20.9463 9.10824 22.7985 9.58107 23.58 9.84545C25.1328 10.364 26.2949 10.9335 27.0663 11.5537C27.797 12.174 28.1624 13.018 28.1624 14.0857C28.1624 14.9703 27.8883 15.7177 27.3403 16.3278C26.8024 16.9379 26.0869 17.4819 25.1937 17.9598C24.3006 18.4377 23.3009 18.8648 22.1947 19.241C21.0985 19.6071 19.9365 19.9223 18.7084 20.1867C17.4905 20.4511 16.2878 20.6697 15.1004 20.8426C12.7762 21.1679 10.7921 21.3306 9.14791 21.3306C6.1539 21.3306 3.84497 20.9697 2.2211 20.2477C1.61215 19.9732 1.11484 19.2868 0.729173 18.1886C0.424698 17.2836 0.272461 16.5413 0.272461 15.9617C0.272461 15.372 0.323207 15.0466 0.424698 14.9856C0.52619 14.9246 0.734248 14.9246 1.04887 14.9856C1.3635 15.0364 1.77454 15.1279 2.282 15.2601L4.10885 15.7482C6.94046 16.46 9.93447 16.8159 13.0909 16.8159C15.415 16.8159 17.384 16.6074 18.9977 16.1905C19.9517 15.9363 20.4592 15.6516 20.52 15.3364C20.5606 15.0618 19.8096 14.7212 18.2669 14.3145C17.5666 14.1213 16.7547 13.9179 15.8311 13.7043C11.3553 12.6163 8.65567 11.9147 7.7321 11.5995C6.80852 11.2843 6.20465 11.0046 5.92047 10.7606C5.64644 10.5166 5.41809 10.2471 5.2354 9.95221C4.90048 9.37262 4.73302 8.82352 4.73302 8.30493C4.73302 7.77618 4.75839 7.36944 4.80914 7.08473C4.87003 6.80001 4.95123 6.53564 5.05272 6.29159C5.26585 5.79334 5.5348 5.4527 5.85958 5.26967C8.46791 3.80542 12.2992 2.51912 17.3535 1.41077C21.8496 0.414267 25.549 -0.0839844 28.4516 -0.0839844C29.0403 -0.0839844 29.4818 0.0176995 29.7761 0.221067C30.2835 0.597298 30.5068 0.998949 30.4459 1.42602C30.385 1.85309 30.2531 2.24966 30.0501 2.61572C29.8573 2.97162 29.6137 3.297 29.3194 3.59189C29.025 3.8766 28.6952 4.13081 28.3298 4.35452C27.9746 4.56805 27.6042 4.746 27.2185 4.88836C26.4472 5.17307 25.6961 5.31543 24.9654 5.31543Z" fill="white"/>
<path d="M35.4935 16.8464C35.8284 16.704 36.2953 16.4803 36.8941 16.1753C40.5579 14.2941 42.5675 13.2569 42.9227 13.0637L43.5621 12.7129C44.2218 12.2859 44.5263 11.9503 44.4755 11.7063C44.3639 11.1877 44.0848 10.9792 43.6382 11.0809C43.1917 11.1724 42.7248 11.2995 42.2376 11.4622C41.7606 11.6249 41.2532 11.8232 40.7153 12.0571C39.5887 12.5248 38.5992 12.9926 37.7466 13.4603C34.7628 15.1788 32.9664 16.221 32.3574 16.5871C31.921 17.5734 31.5303 18.5547 31.1852 19.5308L29.3431 24.7472C28.7646 26.364 28.181 27.4571 27.5924 28.0265C27.2778 28.3417 26.9276 28.4994 26.542 28.4994C25.5879 28.4994 24.8369 28.1638 24.2888 27.4927C23.7408 26.8317 23.4668 25.9878 23.4668 24.9608C23.4668 23.9439 23.5987 22.9372 23.8626 21.9407C24.1265 20.9544 24.4918 19.9528 24.9587 18.936C25.9026 16.882 27.1661 14.9652 28.7494 13.1858C29.7136 10.5928 31.3171 8.07615 33.5601 5.63573C34.9302 4.15115 36.204 3.1038 37.3813 2.4937C37.9699 2.18865 38.4723 2.03612 38.8884 2.03612C39.3045 2.03612 39.6192 2.13272 39.8323 2.32592C40.0454 2.50895 40.152 2.74283 40.152 3.02754C40.152 3.30209 40.0657 3.6529 39.8932 4.07997C39.7206 4.50704 39.4872 4.98496 39.1929 5.51371C38.8986 6.04247 38.5535 6.60681 38.1577 7.20675L36.8941 9.05231C36.7926 9.20484 36.7419 9.34211 36.7419 9.46413C36.7419 9.65733 36.8586 9.75393 37.092 9.75393C37.3559 9.75393 37.843 9.58615 38.5535 9.25059L40.9893 8.1219C43.1206 7.15591 45.1606 6.67291 47.1092 6.67291C48.1242 6.67291 49.0782 7.15591 49.9713 8.1219C50.8746 9.09807 51.3262 10.1454 51.3262 11.2639C51.3262 12.9926 50.6208 14.3246 49.2101 15.2601L47.3224 16.5108C46.6424 16.9379 45.9421 17.3599 45.2215 17.7768L43.0293 18.9817C40.563 20.263 38.655 20.9036 37.3051 20.9036C35.9655 20.9036 34.9911 20.7358 34.3822 20.4002C33.7732 20.0647 33.4688 19.5918 33.4688 18.9817C33.4688 18.1581 34.1437 17.4463 35.4935 16.8464Z" fill="white"/>
<path d="M76.393 9.20484C76.7178 9.20484 76.8802 9.47938 76.8802 10.0285C76.8802 10.9741 76.2205 12.1994 74.9011 13.7043L74.0333 14.589C71.4047 17.2226 68.9283 18.9767 66.6042 19.8511C65.163 20.3901 64.1278 20.3646 63.4985 19.7749C62.9809 19.2766 62.5699 18.4733 62.2654 17.365L61.9 16.038L58.6574 18.0361L56.7848 19.1038C54.552 20.324 52.8774 20.9341 51.761 20.9341C50.33 20.9341 49.1374 20.3799 48.1834 19.2715C47.27 18.2242 46.8133 17.0091 46.8133 15.6262C46.8133 14.2636 47.3563 13.0485 48.4422 11.9808C49.9951 10.4555 52.4461 9.0574 55.7953 7.78635C58.9618 6.59665 61.5194 6.00179 63.4681 6.00179C64.1278 6.00179 64.4576 6.32718 64.4576 6.97796C64.4576 7.42537 64.3713 7.76093 64.1988 7.98463C64.0263 8.20833 63.6711 8.43712 63.1331 8.671L61.215 9.49464C58.3732 10.6843 56.2926 11.9198 54.9732 13.201C54.5977 13.5569 54.4099 13.9026 54.4099 14.2382C54.4099 14.5737 54.6789 14.7415 55.2168 14.7415C55.7446 14.7415 56.9726 14.1721 58.9009 13.0332L60.1645 12.2859C62.1233 11.1063 63.7624 10.5166 65.0818 10.5166C66.1982 10.5166 66.9391 11.0097 67.3045 11.9961C67.3958 12.2604 67.4821 12.5299 67.5633 12.8044C67.6444 13.0688 67.7256 13.3078 67.8068 13.5213C67.9895 14.0196 68.1519 14.2687 68.294 14.2687C68.4462 14.2687 68.6594 14.1975 68.9334 14.0552C69.2074 13.9026 69.5068 13.7145 69.8316 13.4908C70.1665 13.2569 70.5116 13.0027 70.8668 12.7282L72.7089 11.2487C74.3429 9.88612 75.5709 9.20484 76.393 9.20484Z" fill="white"/>
<path d="M93.9698 10.8216C93.9698 11.2995 93.3456 12.2248 92.0972 13.5976C90.8184 14.9906 89.565 16.1244 88.337 16.9989C85.9621 18.7682 83.3284 19.9782 80.4358 20.629C79.3397 20.8832 78.2994 21.0103 77.315 21.0103C76.3407 21.0103 75.5287 20.9239 74.8792 20.751C74.2398 20.5883 73.6613 20.3697 73.1437 20.0952C72.6362 19.8105 72.1947 19.4851 71.8192 19.119C71.4437 18.753 71.1291 18.3666 70.8753 17.9598C70.378 17.1667 70.1294 16.4346 70.1294 15.7634C70.1294 15.0923 70.2055 14.5026 70.3577 13.9941C70.4998 13.4857 70.7028 13.0027 70.9667 12.5452C71.8903 10.8775 73.7475 9.40312 76.5386 8.1219C78.7409 7.0949 80.8418 6.42887 82.8412 6.12382C83.7039 5.99163 84.3179 5.92553 84.6833 5.92553C85.0486 5.92553 85.3531 5.96621 85.5967 6.04755C85.8504 6.11873 86.0686 6.22042 86.2513 6.3526C86.6573 6.64749 86.8603 7.04914 86.8603 7.55756C86.8603 8.06598 86.7283 8.54898 86.4645 9.00655C86.2006 9.45396 85.8657 9.83019 85.4597 10.1352C84.6681 10.725 83.7851 11.0199 82.8108 11.0199C81.4812 11.0199 80.3851 10.847 79.5224 10.5013C78.9236 10.7148 78.4162 11.1063 78 11.6758C77.655 12.1435 77.4824 12.5655 77.4824 12.9417C77.4824 13.3078 77.5636 13.6688 77.726 14.0247C77.8986 14.3704 78.1371 14.6805 78.4415 14.9551C79.1114 15.5448 79.9182 15.8397 80.8621 15.8397C83.0543 15.8397 85.6068 14.6754 88.5197 12.3469L89.905 11.2639C91.3665 10.1454 92.4068 9.58615 93.0259 9.58615C93.6551 9.58615 93.9698 9.99797 93.9698 10.8216Z" fill="white"/>
<path d="M110.542 9.44888C111.029 9.44888 111.272 9.72342 111.272 10.2725C111.272 10.6386 111.146 11.1012 110.892 11.6605C110.648 12.2096 110.293 12.7282 109.826 13.2163C109.359 13.6942 108.821 14.1924 108.212 14.711C107.614 15.2296 106.908 15.7736 106.096 16.343C105.295 16.9125 104.407 17.4768 103.432 18.0361C102.458 18.5953 101.423 19.0987 100.327 19.5461C97.9009 20.5426 95.5514 21.0408 93.278 21.0408C91.5425 21.0408 90.0252 20.5883 88.7261 19.6834C87.3661 18.7377 86.6861 17.5887 86.6861 16.2363C86.6861 14.1111 87.8279 12.0927 90.1115 10.181C92.0804 8.53372 94.3995 7.25759 97.0687 6.3526C98.6926 5.80351 100.068 5.52897 101.194 5.52897C102.108 5.52897 102.879 5.75267 103.508 6.20008C104.178 6.68816 104.513 7.34402 104.513 8.16766C104.513 9.45905 103.493 10.8877 101.453 12.4536C101.128 12.7078 100.834 12.9214 100.57 13.0942L100.022 13.4603C99.0072 14.1721 97.4645 14.9703 95.3941 15.855C96.0335 16.1905 96.6272 16.3583 97.1753 16.3583C97.7335 16.3583 98.2308 16.2922 98.6672 16.16C99.1138 16.0278 99.6161 15.8397 100.174 15.5957C100.733 15.3516 101.326 15.0618 101.956 14.7263C102.595 14.3805 103.239 14.0043 103.889 13.5976C105.34 12.6926 106.599 11.7673 107.664 10.8216C108.223 10.303 108.933 9.8912 109.796 9.58615C110.08 9.49464 110.329 9.44888 110.542 9.44888ZM93.7499 13.7349L94.5872 13.3078C94.8613 13.1654 95.1048 13.0332 95.318 12.9112C97.3681 11.7317 98.5353 11.0046 98.8194 10.7301C99.1036 10.4555 99.2457 10.2674 99.2457 10.1657C99.2457 10.0539 99.2153 9.92679 99.1544 9.78443C99.0935 9.64208 99.0123 9.51497 98.9108 9.40312C98.6672 9.11841 98.4084 8.97605 98.1344 8.97605C97.8603 8.97605 97.5559 9.02689 97.2209 9.12857C96.8962 9.23026 96.5663 9.37262 96.2314 9.55565C95.8965 9.72851 95.5717 9.94204 95.2571 10.1963C94.9526 10.4403 94.6837 10.7047 94.4502 10.9894C93.9123 11.63 93.6434 12.1842 93.6434 12.6519C93.6434 13.1197 93.6789 13.4806 93.7499 13.7349Z" fill="white"/>
</g>
</g>
<defs>
<clipPath id="clip0_53_43">
<rect width="111" height="28" fill="white" transform="translate(0.272461 0.5)"/>
</clipPath>
</defs>
</svg>
